<svg xmlns="http://www.w3.org/2000/svg" viewBox="0 0 800 500" width="800" height="500" role="img" aria-hidden="true" focusable="false">
  <rect width="800" height="500" fill="#141d21"/>

  <!-- area edificata, schematica -->
  <path d="M215 130h330l60 70-40 150-300 20-70-110z" fill="#1b262b"/>

  <!-- canale -->
  <path d="M150 0c40 150 10 300 70 500" fill="none" stroke="#2f6d8e" stroke-width="10" opacity="0.85"/>

  <!-- ferrovia -->
  <g fill="none" stroke="#45555b" stroke-width="4">
    <path d="M470 0c-24 160-6 340 44 500"/>
  </g>
  <g fill="none" stroke="#141d21" stroke-width="4" stroke-dasharray="10 14">
    <path d="M470 0c-24 160-6 340 44 500"/>
  </g>

  <!-- strade -->
  <g fill="none" stroke="#5d6f76" stroke-width="18">
    <path d="M380 0c-14 160-6 330 26 500"/>
  </g>
  <g fill="none" stroke="#5d6f76" stroke-width="12">
    <path d="M0 236c140 30 300 24 800-30"/>
    <path d="M250 500l180-260 180-90"/>
  </g>
  <g fill="none" stroke="#33434a" stroke-width="1.5">
    <path d="M371 0c-14 160-6 330 26 500M389 0c-14 160-6 330 26 500"/>
  </g>

  <!-- posizione -->
  <g transform="translate(392 244)">
    <path d="M-34 8V-16l34-19 34 19V8l-34 19z" fill="#3093c9"/>
    <circle cx="0" cy="-4" r="10" fill="#5d6f76"/>
  </g>

  <g font-family="Helvetica, Arial, sans-serif" fill="#e6edef">
    <text x="392" y="316" text-anchor="middle" font-size="27" font-weight="bold">Castel Maggiore</text>
    <text x="392" y="344" text-anchor="middle" font-size="18" fill="#a3b1b6">provincia di Bologna</text>
  </g>

  <g font-family="Helvetica, Arial, sans-serif" font-size="17" fill="#a3b1b6">
    <text x="44" y="446">Bologna</text>
    <text x="44" y="470">10 km a sud</text>
    <text x="756" y="60" text-anchor="end">Ferrara, a nord</text>
  </g>

  <rect x="0" y="0" width="800" height="500" fill="none" stroke="#2a373c" stroke-width="2"/>
</svg>
